<?xml version="1.0" encoding="utf-8"?>
<!-- Generator: Adobe Illustrator 16.0.0, SVG Export Plug-In . SVG Version: 6.00 Build 0)  -->
<!DOCTYPE svg PUBLIC "-//W3C//DTD SVG 1.1//EN" "http://www.w3.org/Graphics/SVG/1.1/DTD/svg11.dtd">
<svg version="1.1" id="Layer_1" xmlns="http://www.w3.org/2000/svg" xmlns:xlink="http://www.w3.org/1999/xlink" x="0px" y="0px"
	 width="1105.085px" height="325.424px" viewBox="0 0 1105.085 325.424" enable-background="new 0 0 1105.085 325.424"
	 xml:space="preserve">
<g>
	<rect x="25.251" y="203.872" fill="#FFFFFF" width="52.462" height="4.594"/>
	<rect x="25.251" y="190.127" fill="#FFFFFF" width="52.462" height="4.594"/>
	<rect x="161.185" y="217.636" fill="#FFFFFF" width="52.462" height="4.798"/>
	<rect x="161.185" y="173.325" fill="#FFFFFF" width="52.462" height="7.632"/>
	<rect x="161.185" y="203.872" fill="#FFFFFF" width="52.462" height="4.594"/>
	<rect x="161.185" y="190.127" fill="#FFFFFF" width="52.462" height="4.594"/>
	<rect x="25.251" y="217.636" fill="#FFFFFF" width="52.462" height="4.798"/>
	<path fill="#FFFFFF" d="M23.695,164.155h52.462v-20.784h83.472v20.784h52.499V27.185h-52.499v74.691H76.157V27.185
		c-4.631,0-9.3,0-13.968,0c-8.521,0-16.857-0.704-25.008,1.963c-2.705,0.89-5.483,1.631-7.447,3.872
		c-8.04,9.207-6.039,23.174-6.039,34.549c0,21.136,0,42.291,0,63.428C23.695,142.037,23.695,153.096,23.695,164.155z"/>
	<rect x="25.251" y="173.325" fill="#FFFFFF" width="52.462" height="7.632"/>
	<rect x="387.186" y="190.127" fill="#FFFFFF" width="52.461" height="4.594"/>
	<rect x="387.186" y="203.872" fill="#FFFFFF" width="52.461" height="4.594"/>
	<rect x="252.438" y="203.872" fill="#FFFFFF" width="52.498" height="4.594"/>
	<path fill="#FFFFFF" d="M439.646,71.606c0-29.603-16.598-44.422-49.757-44.422h-87.658c-33.196,0-49.794,14.819-49.794,44.422
		v92.549h187.209V71.606z M387.186,89.908v45.404h-82.25V89.908l0,0c0-12.041,5.373-18.08,16.08-18.08l23.637-0.073h1.408h1.186
		l23.822,0.092C381.813,71.847,387.186,77.867,387.186,89.908L387.186,89.908z"/>
	<path fill="#FFFFFF" d="M870.112,71.606c0-29.603-16.598-44.422-49.794-44.422h-87.621c-33.196,0-49.794,14.819-49.794,44.422
		v92.549h187.209V71.606z M817.65,89.908v45.404h-82.286V89.908l0,0c0-12.041,5.372-18.08,16.117-18.08l23.6-0.073h1.408h1.223
		l23.822,0.092C812.241,71.847,817.65,77.867,817.65,89.908L817.65,89.908z"/>
	<rect x="252.438" y="190.127" fill="#FFFFFF" width="52.498" height="4.594"/>
	<rect x="387.186" y="217.636" fill="#FFFFFF" width="52.461" height="4.798"/>
	<rect x="252.438" y="217.636" fill="#FFFFFF" width="52.498" height="4.798"/>
	<path fill="#FFFFFF" d="M476.029,132.7c9.781,8.892,22.378,13.338,37.827,13.338h69.569c9.077,1.63,13.634,7.188,13.634,16.598
		v0.482c0,0.37,0,0.704,0,1.037h52.499v-13.968c0-16.413-4.631-28.12-13.931-35.122c-8.262-6.354-21.118-9.522-38.568-9.522h-68.31
		c-9.929,0-14.894-5.575-14.894-16.728v-0.5c0-4.409,1.223-8.299,3.668-11.671c2.408-3.353,5.742-5.038,10.003-5.038
		c2.816,0,5.669,0,8.484,0c19.229,0,38.448,0,57.677,0c14.856,0,52.276,5.409,52.239-18.266c0-4.872,0.037-9.484-1.148-14.115
		c-4.001-15.302-26.379-12.041-37.79-12.041c-31.048,0-62.122,0-93.207,0c-17.376,0-30.232,3.148-38.494,9.466
		c-9.262,6.946-13.894,18.617-13.894,34.956v24.489C461.395,111.601,466.248,123.809,476.029,132.7z"/>
	<path fill="#FFFFFF" d="M649.521,173.325h-54.647c-2.371,4.094-6.595,6.168-12.671,6.168H461.395v1.464H649.04
		C649.373,178.512,649.521,175.974,649.521,173.325z"/>
	<path fill="#FFFFFF" d="M647.039,190.127H461.395v4.594h183.903C645.965,193.239,646.521,191.72,647.039,190.127z"/>
	<path fill="#FFFFFF" d="M461.395,222.434H597.06c9.3,0,17.562-1.593,24.786-4.798H461.395V222.434z"/>
	<path fill="#FFFFFF" d="M639.814,203.872h-178.42v4.594h174.233C637.147,207.021,638.555,205.502,639.814,203.872z"/>
	<rect x="818.207" y="217.636" fill="#FFFFFF" width="52.461" height="4.798"/>
	<rect x="683.459" y="217.636" fill="#FFFFFF" width="52.498" height="4.798"/>
	<rect x="818.207" y="203.872" fill="#FFFFFF" width="52.461" height="4.594"/>
	<rect x="683.459" y="203.872" fill="#FFFFFF" width="52.498" height="4.594"/>
	<rect x="818.207" y="190.127" fill="#FFFFFF" width="52.461" height="4.594"/>
	<rect x="683.459" y="190.127" fill="#FFFFFF" width="52.498" height="4.594"/>
	<rect x="1029.572" y="217.636" fill="#FFFFFF" width="52.499" height="4.798"/>
	<rect x="894.861" y="173.325" fill="#FFFFFF" width="52.462" height="7.632"/>
	<path fill="#FFFFFF" d="M1067.659,39.633c-9.3-8.299-21.971-12.448-38.087-12.448H894.861v136.971h52.462V71.606h59.315
		c7.817,0,13.412,1.223,16.82,3.668c4.076,2.778,6.113,7.817,6.113,15.153v73.728h52.499V76.979
		C1082.071,60.862,1077.255,48.413,1067.659,39.633z"/>
	<rect x="1029.572" y="203.872" fill="#FFFFFF" width="52.499" height="4.594"/>
	<rect x="1029.572" y="190.127" fill="#FFFFFF" width="52.499" height="4.594"/>
	<rect x="1029.572" y="173.325" fill="#FFFFFF" width="52.499" height="7.632"/>
	<rect x="894.861" y="203.872" fill="#FFFFFF" width="52.462" height="4.594"/>
	<rect x="894.861" y="217.636" fill="#FFFFFF" width="52.462" height="4.798"/>
	<rect x="894.861" y="190.127" fill="#FFFFFF" width="52.462" height="4.594"/>
	<polygon fill="#FFFFFF" points="439.646,173.325 387.186,173.325 387.186,175.085 387.186,180.957 439.646,180.957 	"/>
	<polygon fill="#FFFFFF" points="252.438,180.957 304.936,180.957 304.936,175.085 304.936,173.325 252.438,173.325 	"/>
	<polygon fill="#FFFFFF" points="818.207,175.085 818.207,180.957 870.668,180.957 870.668,173.325 818.207,173.325 	"/>
	<polygon fill="#FFFFFF" points="735.957,175.085 735.957,173.325 683.459,173.325 683.459,180.957 735.957,180.957 	"/>
	<path fill="#FFFFFF" d="M29.623,254.519c-2.408,2-3.631,5.261-3.631,9.854v28.454c0,4.372,1.26,7.78,3.854,10.3
		c2.557,2.52,5.854,3.742,9.892,3.742h35.604v-12.078H43.628c-2.594,0-3.891-1.741-3.891-5.225v-21.044
		c0-2.704,1.186-4.075,3.594-4.075l32.011-0.074v-12.485H39.737C35.181,251.888,31.81,252.74,29.623,254.519z"/>
	<path fill="#FFFFFF" d="M131.842,254.519c-2.148-1.778-5.521-2.631-10.077-2.631H99.868c-4.52,0-7.891,0.853-10.077,2.631
		c-2.445,2-3.631,5.261-3.631,9.854v28.454c0,4.372,1.26,7.78,3.816,10.3s5.891,3.742,9.892,3.742h21.896
		c4.038,0,7.373-1.223,9.893-3.742c2.556-2.52,3.853-5.928,3.853-10.3v-28.454C135.51,259.779,134.287,256.519,131.842,254.519z
		 M121.765,289.566c0,3.483-1.297,5.225-3.891,5.225h-14.078c-2.594,0-3.928-1.741-3.928-5.225v-21.044
		c0-2.704,1.223-4.075,3.594-4.075h14.709c2.371,0,3.594,1.371,3.594,4.075V289.566z"/>
	<path fill="#FFFFFF" d="M220.39,251.888h-70.542v54.981h13.709v-42.496h15.561c2.037,0,3.482,0.371,4.408,1.038
		c1.075,0.777,1.594,2.223,1.594,4.261v37.197h13.745v-42.496h15.523c2.038,0,3.52,0.371,4.409,1.038
		c1.074,0.777,1.593,2.223,1.593,4.261v37.197h13.745v-40.977c0-4.521-1.26-8.04-3.779-10.522
		C227.947,253.036,224.613,251.888,220.39,251.888z"/>
	<path fill="#FFFFFF" d="M283.521,251.888h-35.938v54.981h13.745v-13.338h22.192c8.707,0,13.078-4.187,13.078-12.597v-16.562
		C296.6,256.037,292.229,251.888,283.521,251.888z M282.854,277.229c0,3.408-1.407,5.112-4.224,5.112h-17.302v-17.969l17.302,0.074
		c2.816,0,4.224,1.704,4.224,5.076V277.229z"/>
	<path fill="#FFFFFF" d="M345.505,294.383h-15.523c-2.001,0-3.482-0.37-4.372-1.037c-1.074-0.852-1.63-2.26-1.63-4.261v-37.197
		h-13.782v40.977c0,4.52,1.26,8.003,3.741,10.411c2.445,2.408,5.817,3.594,10.041,3.594h35.271v-54.981h-13.745V294.383z"/>
	<polygon fill="#FFFFFF" points="372.439,264.373 389.186,264.373 389.186,306.869 402.932,306.869 402.932,264.373 
		419.678,264.373 419.678,251.888 372.439,251.888 	"/>
	<rect x="429.569" y="251.888" fill="#FFFFFF" width="13.745" height="54.981"/>
	<path fill="#FFFFFF" d="M493.257,251.888h-35.308v54.981h13.745v-42.496h15.523c2.075,0,3.557,0.371,4.446,1.038
		c1.037,0.777,1.593,2.223,1.593,4.261v37.197h13.745v-40.977c0-4.521-1.259-8.04-3.778-10.522
		C500.778,253.036,497.48,251.888,493.257,251.888z"/>
	<path fill="#FFFFFF" d="M524.526,254.519c-2.408,2-3.594,5.261-3.594,9.854v28.454c0,4.335,1.334,7.78,3.928,10.337
		c2.482,2.482,5.742,3.705,9.817,3.705h35.596v-33.975h-21.665v11.708h7.929v10.188h-17.969c-2.631,0-3.927-1.741-3.927-5.225
		v-21.044c0-1.186,0.296-2.186,0.963-2.927c0.667-0.777,1.519-1.148,2.631-1.148l32.038-0.074v-12.485h-35.596
		C530.047,251.888,526.676,252.74,524.526,254.519z"/>
	<path fill="#FFFFFF" d="M629.478,254.519c-2.408,2-3.668,5.261-3.668,9.854v6.929c0,4.335,1.297,7.78,3.854,10.3
		c2.557,2.519,5.891,3.741,9.93,3.741h18.19c2.408,0.482,3.594,2.038,3.594,4.706v0.11c0,3.075-1.297,4.632-3.89,4.632H625.81
		v12.078h35.567c4.039,0,7.373-1.223,9.93-3.742c2.52-2.482,3.815-5.928,3.815-10.263v-6.336c0-4.631-1.223-7.928-3.63-9.892
		c-2.187-1.815-5.558-2.705-10.115-2.705h-17.895c-2.594,0-3.89-1.556-3.89-4.705v-0.147c0-1.223,0.296-2.335,0.926-3.261
		c0.667-0.963,1.519-1.445,2.631-1.445h31.973v-12.485h-35.566C634.998,251.888,631.627,252.74,629.478,254.519z"/>
	<polygon fill="#FFFFFF" points="715.396,271.486 702.688,251.888 686.83,251.888 708.541,285.01 708.541,306.869 722.323,306.869 
		722.323,285.01 743.849,251.888 727.992,251.888 	"/>
	<path fill="#FFFFFF" d="M757.594,254.519c-2.445,2-3.631,5.261-3.631,9.854v6.929c0,4.335,1.26,7.78,3.816,10.3
		c2.557,2.519,5.854,3.741,9.893,3.741h18.228c2.408,0.482,3.594,2.038,3.594,4.706v0.11c0,3.075-1.297,4.632-3.89,4.632h-31.641
		v12.078h35.53c4.039,0,7.336-1.223,9.893-3.742c2.594-2.482,3.853-5.928,3.853-10.263v-6.336c0-4.631-1.223-7.928-3.667-9.892
		c-2.149-1.815-5.521-2.705-10.078-2.705h-17.895c-2.594,0-3.927-1.556-3.927-4.705v-0.147c0-1.223,0.333-2.335,1-3.261
		c0.593-0.963,1.481-1.445,2.594-1.445h31.973v-12.485h-35.566C763.114,251.888,759.743,252.74,757.594,254.519z"/>
	<polygon fill="#FFFFFF" points="815.132,264.373 831.878,264.373 831.878,306.869 845.623,306.869 845.623,264.373 
		862.369,264.373 862.369,251.888 815.132,251.888 	"/>
	<polygon fill="#FFFFFF" points="871.113,306.869 920.166,306.869 920.166,294.383 884.858,294.383 884.858,285.973 911.2,285.973 
		911.2,272.895 884.858,272.895 884.858,264.373 920.166,264.373 920.166,251.888 871.113,251.888 	"/>
	<path fill="#FFFFFF" d="M1003.193,251.888h-70.542v54.981h13.745v-42.496h15.524c2.037,0,3.52,0.371,4.408,1.038
		c1.075,0.777,1.594,2.223,1.594,4.261v37.197h13.745v-42.496h15.523c2.038,0,3.52,0.371,4.409,1.038
		c1.074,0.777,1.593,2.223,1.593,4.261v37.197h13.745v-40.977c0-4.521-1.26-8.04-3.779-10.522
		C1010.751,253.036,1007.417,251.888,1003.193,251.888z"/>
	<path fill="#FFFFFF" d="M1034.389,254.519c-2.408,2-3.631,5.261-3.631,9.854v6.929c0,4.335,1.26,7.78,3.816,10.3
		c2.594,2.519,5.891,3.741,9.929,3.741h18.229c2.371,0.482,3.557,2.038,3.557,4.706v0.11c0,3.075-1.26,4.632-3.853,4.632h-31.678
		v12.078h35.53c4.075,0,7.373-1.223,9.93-3.742c2.556-2.482,3.815-5.928,3.815-10.263v-6.336c0-4.631-1.186-7.928-3.631-9.892
		c-2.186-1.815-5.557-2.705-10.114-2.705h-17.857c-2.631,0-3.928-1.556-3.928-4.705v-0.147c0-1.223,0.334-2.335,0.964-3.261
		c0.667-0.963,1.519-1.445,2.63-1.445h31.937v-12.485h-35.53C1039.946,251.888,1036.574,252.74,1034.389,254.519z"/>
</g>
</svg>
